<svg width="1101" height="1098" xmlns="http://www.w3.org/2000/svg" version="1.1" enable-background="new 0 0 1101 1098" xml:space="preserve">
 <g>
  <title>Layer 1</title>
  <path fill="#FFFFFF" d="m425.73389,654.76331c5.1857,-3.88483 10.12564,-7.48255 15.01574,-11.14698c5.74329,-4.30377 11.60776,-8.46863 17.10715,-13.0675c4.01679,-3.35901 7.49521,-7.35645 11.2721,-11.00879c6.9143,-6.6864 13.92257,-13.27661 20.77356,-20.0268c1.60019,-1.57666 2.72766,-3.63299 4.07257,-5.46868c-1.80582,-0.68372 -3.56055,-1.59693 -5.42612,-2.01233c-9.0871,-2.02277 -17.28714,-6.05487 -25.47733,-10.35388c-8.2583,-4.33484 -17.00012,-7.73932 -25.37295,-11.86994c-2.9762,-1.4682 -5.71158,-3.63104 -8.17774,-5.89062c-10.35034,-9.48328 -21.03131,-18.67591 -30.64538,-28.86725c-6.14582,-6.51489 -10.79376,-14.48597 -15.81513,-22.0033c-3.3988,-5.08829 -6.74289,-10.31122 -9.27273,-15.85657c-3.0618,-6.71139 -5.25144,-13.82186 -7.79175,-20.7694c-0.92432,-2.52796 -1.96814,-5.03513 -2.61533,-7.63691c-1.56729,-6.30087 -3.35131,-12.5935 -4.24484,-19.00146c-0.68271,-4.89606 -0.4277,-9.98569 -0.05102,-14.94834c0.35449,-4.67065 -1.63141,-5.7763 -5.91678,-5.92862c-10.81229,-0.38421 -21.6594,-0.81253 -32.38675,-2.10284c-4.91532,-0.59119 -9.50635,-3.5181 -14.38312,-4.89453c-4.61975,-1.3039 -9.50455,-1.67181 -14.1199,-2.98761c-5.16144,-1.47141 -10.18625,-3.45398 -15.2056,-5.38312c-5.43207,-2.08774 -10.95895,-4.03564 -16.1329,-6.65906c-5.57447,-2.82653 -11.08692,-5.96441 -16.08489,-9.69241c-6.66595,-4.9722 -13.21431,-10.24176 -19.06921,-16.12408c-6.47509,-6.50537 -12.43576,-13.59821 -18.0128,-20.89939c-4.91396,-6.43316 -8.98688,-13.50839 -13.44321,-20.29217c-0.35565,-0.54144 -1.229,-1.10474 -1.14792,-1.51773c1.67667,-8.53901 -5.55801,-10.57608 -10.49359,-13.87726c-5.65413,-3.78177 -12.05595,-6.43817 -17.75647,-10.16013c-6.50319,-4.246 -13.12004,-8.56869 -18.72763,-13.87286c-7.21016,-6.81995 -14.26054,-14.09387 -19.91825,-22.19318c-6.1749,-8.83975 -11.29868,-18.57068 -15.694,-28.44151c-2.93851,-6.59917 -3.99128,-14.08066 -5.53435,-21.24347c-1.01235,-4.69929 -1.02568,-9.6286 -2.21186,-14.26947c-0.60064,-2.34996 -2.44801,-4.70894 -4.34995,-6.34525c-11.9635,-10.29263 -23.40522,-20.95268 -30.66432,-35.35072c-2.95586,-5.86281 -6.96189,-11.24064 -9.49347,-17.25842c-1.92799,-4.58298 -1.55439,-10.1366 -3.49413,-14.71173c-3.71879,-8.77129 -0.36789,-18.30197 -4.23304,-27.28957c-2.21317,-5.14627 -0.31125,-12.07764 -0.18403,-18.20372c0.03009,-1.44874 0.26086,-2.91796 0.59784,-4.33039c0.63351,-2.6553 1.41168,-5.27608 2.08249,-7.73795c12.64251,7.02494 24.25289,13.48037 35.86737,19.92842c6.02177,3.34312 11.8942,7.00752 18.11728,9.92216c7.3244,3.43046 14.97253,6.16517 22.45014,9.27404c13.83672,5.75268 27.56914,11.76721 41.50841,17.25782c7.54918,2.97362 15.47368,4.98032 23.16035,7.62252c10.10846,3.47462 20.12882,7.205 30.22931,10.70343c4.2146,1.45977 8.52372,2.65532 12.81471,3.88417c9.82363,2.81334 19.72294,5.37883 29.47809,8.41002c9.56958,2.97354 18.94397,6.57539 28.51404,9.54725c4.44867,1.38149 9.215,1.70713 13.73529,2.89859c6.61362,1.74324 13.08652,4.02356 19.70676,5.73757c13.02167,3.37132 26.14215,6.36439 39.1445,9.80569c6.76193,1.78966 13.29855,4.42444 20.05017,6.26116c5.4227,1.4752 11.04779,2.18917 16.52435,3.48846c5.42731,1.28758 10.80997,2.78713 16.16056,4.36856c8.54522,2.52571 16.89108,6.35442 25.6051,7.53252c12.91122,1.74556 24.67963,6.959 37.10345,10.0684c9.69413,2.42623 19.28583,5.30117 28.82544,8.28846c4.82837,1.51197 9.42865,3.74462 14.1529,5.59825c14.18158,5.56434 28.55462,10.69001 42.4895,16.81402c7.69476,3.38166 14.73633,8.29935 21.93176,12.75174c5.49384,3.39948 10.67004,7.31934 16.22516,10.60614c1.02637,0.6073 4.34387,-0.3056 4.64593,-1.18741c3.25989,-9.51809 10.17017,-16.12765 16.91816,-23.07373c2.18096,-2.24496 3.73498,-6.57324 3.30011,-9.6242c-1.67811,-11.7737 3.99121,-21.12261 9.41595,-30.33503c3.62488,-6.15596 8.5603,-11.73167 13.71625,-16.73556c4.3183,-4.19095 6.90637,-9.17633 6.87305,-14.54808c-0.0636,-10.26193 4.05413,-18.47531 9.07849,-26.98744c6.72668,-11.39601 16.90332,-19.28157 26.466,-27.63073c3.76758,-3.28942 4.56641,-5.90148 4.84528,-10.20586c0.27502,-4.24482 1.70898,-8.44791 2.906,-12.59084c1.37048,-4.74314 2.78131,-9.50561 4.64539,-14.0673c2.33465,-5.71343 4.93213,-11.34555 7.81994,-16.79895c2.52588,-4.77021 5.45282,-9.35304 8.51374,-13.80473c1.58233,-2.30131 3.50677,-4.80643 5.88788,-5.99504c2.34338,-1.16976 5.24511,-0.5427 7.02551,2.34018c6.99237,11.32247 14.039,22.61256 21.18719,33.83717c2.42847,3.8133 5.55231,7.207 7.77552,11.12329c6.19055,10.90487 12.05181,21.99619 18.08953,32.98835c3.69379,6.72493 7.83271,13.231 11.13483,20.13974c5.84619,12.23157 11.79828,24.47189 16.57904,37.13408c3.65863,9.6902 5.88129,19.96873 8.15833,30.11671c1.30731,5.82645 1.34149,11.92923 2.16351,17.87793c0.39282,2.84232 1.36706,5.59909 1.9364,8.42314c1.53888,7.63346 0.84363,15.08997 -1.77801,22.42252c-0.42597,1.19131 -0.27521,2.6402 -0.18543,3.95596c0.47766,7.00131 -2.06573,13.22763 -4.57611,19.55789c-2.15167,5.42575 -3.65039,11.10953 -5.4751,16.667c-0.19305,0.5881 -0.61627,1.10729 -0.96655,1.63607c-2.65381,4.00681 -5.47583,7.91233 -7.94428,12.02991c-6.25299,10.43002 -12.36956,20.9422 -18.49957,31.4455c-3.72003,6.37402 -4.47467,11.5643 -2.44818,16.72818c8.27264,-2.54612 16.43726,-5.69471 24.88843,-7.50751c11.98907,-2.57172 24.12738,-4.75952 36.31482,-6.01557c15.11798,-1.5581 30.22815,0.3216 45.12396,3.00236c5.41034,0.97372 10.45496,3.82901 15.78204,5.44491c13.36054,4.05283 25.20588,10.91602 36.19165,19.32059c3.90705,2.98901 7.40143,6.53879 10.94611,9.97509c4.92963,4.77884 9.57233,9.8667 14.67456,14.44715c1.66004,1.4902 4.43213,2.65356 6.59802,2.50873c8.85761,-0.59232 16.11975,3.5375 23.74079,6.93432c8.45038,3.76651 16.13263,8.60535 22.80444,14.98151c1.91351,1.82874 6.47614,0.34906 6.10101,4.91687c-0.1344,1.63794 0.22327,3.79279 -0.67187,4.75677c-0.88208,0.94993 -3.07532,0.96967 -4.67755,0.91758c-11.54712,-0.37564 -23.22034,-1.96759 -33.97602,4.15487c-0.53625,0.30527 -1.22467,0.38047 -1.85534,0.47705c-8.77924,1.34519 -17.69483,2.12226 -26.29334,4.20798c-5.51721,1.33832 -11.01074,3.94715 -15.72613,7.14823c-7.42865,5.04305 -14.63257,10.60003 -21.14765,16.76763c-13.47473,12.75617 -28.16302,24.33481 -38.99249,39.74991c-4.22278,6.01087 -9.50653,11.26789 -13.87585,17.18665c-5.2638,7.13025 -10.90772,14.08441 -13.97242,22.59417c-0.16198,0.44965 0.11115,1.24702 -0.14911,1.44275c-9.06561,6.82001 -11.85473,18.05018 -18.29425,26.77961c-7.00488,9.49597 -15.95904,17.17327 -22.47058,26.98925c-3.1983,4.82148 -7.43475,9.07154 -11.70733,13.03479c-5.97821,5.54554 -11.99915,11.24067 -18.78717,15.66755c-8.34534,5.44232 -15.52954,12.30615 -24.66468,17.00897c-7.86639,4.04974 -15.71863,8.51861 -23.63659,12.70984c-10.85663,5.7467 -22.12671,10.34375 -33.92798,13.82055c-7.30774,2.15296 -14.21814,5.67377 -21.54401,7.73999c-6.01483,1.69654 -12.42822,1.92066 -18.57776,3.21253c-10.15106,2.13244 -20.17376,4.90863 -30.36096,6.8269c-7.97351,1.50141 -16.12518,2.03717 -24.17523,3.16248c-3.00397,0.41992 -5.94049,1.31219 -8.91449,1.95801c-7.51923,1.63305 -15.01129,3.41552 -22.57306,4.82165c-6.84558,1.27289 -13.73761,2.51618 -20.6654,3.07526c-10.27717,0.8294 -17.83216,6.74835 -25.46692,12.61175c-5.58979,4.29291 -10.9433,8.89203 -16.46869,13.27063c-13.43857,10.64972 -26.19617,22.03339 -38.30664,34.19196c-7.43952,7.46918 -15.60102,14.21374 -23.26868,21.46313c-5.71704,5.40503 -11.16275,11.09711 -16.72861,16.66205c-5.43264,5.43176 -10.97528,10.75885 -16.27316,16.31909c-10.27014,10.77875 -20.61878,21.49579 -30.52875,32.60083c-9.28509,10.40491 -17.92352,21.38428 -27.08545,31.90271c-4.86337,5.58344 -10.44964,10.53626 -15.32657,16.10895c-7.86581,8.9881 -15.52911,18.16052 -23.06521,27.42804c-7.19443,8.84729 -14.16123,17.88147 -21.13565,26.90491c-2.48099,3.20978 -4.70835,6.617 -7.01789,9.95733c-1.80789,2.61493 -4.42001,5.13355 -7.2966,3.44147c-2.20807,-1.29889 -3.98526,-4.57495 -4.50287,-7.25226c-1.19338,-6.17309 -0.96533,-12.63897 -2.34994,-18.7514c-1.02933,-4.54401 -3.78204,-8.67969 -5.591,-13.06976c-2.17346,-5.2746 -4.13367,-10.6366 -6.23468,-15.94159c-2.26932,-5.7298 -4.60083,-11.43488 -6.88974,-17.15699c-0.4061,-1.01519 -0.89606,-2.03405 -1.07382,-3.09698c-0.76758,-4.58966 -1.00907,-9.32617 -2.3559,-13.72968c-0.50308,-1.64465 -3.34873,-2.9317 -5.38419,-3.68457c-7.46075,-2.75964 -15.17737,-4.87762 -22.48782,-7.96966c-3.0463,-1.28852 -5.37918,-4.34735 -7.92354,-6.72223c-6.1167,-5.70953 -13.20895,-10.7478 -17.97388,-17.43482c-5.66816,-7.95452 -13.25515,-9.73053 -21.71721,-10.98687c-6.73738,-1.00031 -11.51515,-6.05915 -17.46505,-8.67267c-8.57256,-3.76563 -13.62708,-11.52686 -20.26105,-17.46576c-8.25958,-7.39423 -16.35324,-15.03302 -23.86015,-23.17334c-2.30468,-2.49909 -3.56369,-7.086 -3.27042,-10.54468c0.29977,-3.53509 4.52158,-3.55499 7.83487,-4.27447c6.20039,-1.34638 12.15968,-3.77277 18.26335,-5.60291c7.19544,-2.15753 14.47438,-4.04046 21.64955,-6.26074c7.735,-2.39356 15.42379,-4.94751 23.07495,-7.59827c10.40183,-3.60357 20.84711,-7.11377 31.09673,-11.11731c15.88632,-6.20538 31.62817,-12.78112 47.42154,-19.22375c9.74902,-3.97699 19.6224,-7.68744 29.18631,-12.07099c15.31741,-7.02056 30.42853,-14.49163 45.61865,-21.7893c9.77243,-4.69507 19.73099,-9.05164 29.24271,-14.22772c11.38516,-6.19556 22.45047,-12.99219 33.52377,-19.74268c6.86694,-4.18622 13.49152,-8.77002 20.49268,-13.43304m-145.59397,-378.77549c-3.30697,-0.66217 -6.63528,-1.23346 -9.91705,-2.00308c-10.93341,-2.56421 -21.84235,-5.23285 -32.77589,-7.79639c-7.62099,-1.78689 -15.27747,-3.42251 -22.89782,-5.21194c-4.52125,-1.06171 -9.07504,-2.06888 -13.48617,-3.49622c-6.8405,-2.21341 -13.60687,-4.67076 -20.34152,-7.19328c-11.65816,-4.36667 -23.30471,-8.76967 -34.87836,-13.35374c-4.1346,-1.63764 -8.04366,-3.84468 -13.11226,-6.3046c0.36363,2.59982 0.2339,3.5376 0.61975,4.1512c5.80602,9.23343 11.41658,18.60695 17.63059,27.56059c4.12861,5.94889 8.59265,11.88901 13.91548,16.72177c5.2884,4.80149 12.11127,7.86582 17.77604,12.31031c9.86615,7.74078 21.52839,11.74945 32.80155,16.53189c6.2585,2.65506 12.79773,4.88894 19.42015,6.38287c7.78126,1.75534 14.75221,6.07419 23.21634,5.9711c5.44302,-0.06628 10.89371,2.45093 16.38147,3.62003c6.92453,1.47515 13.8526,3.00979 20.84887,4.05011c6.92591,1.02981 14.62757,-0.1113 20.75348,2.54693c9.46283,4.10627 19.39185,3.08515 28.77378,3.93848c19.08233,1.73553 38.28656,2.53796 57.41885,4.42758c14.74982,1.45679 29.6351,1.64874 44.46918,2.11649c16.41244,0.51751 32.86182,0.28515 49.23624,1.31524c4.56954,0.28751 11.54211,-2.0603 13.65835,6.15421c-4.44174,1.18945 -8.85141,3.22299 -13.34653,3.43368c-26.28137,1.23212 -52.57437,-0.88687 -78.93795,1.74741c-17.3779,1.73642 -35.13532,-0.11441 -52.71326,-0.66403c-12.01334,-0.37564 -24.00577,-1.37613 -36.01556,-1.9195c-16.83304,-0.76162 -33.70209,-0.96237 -50.50025,-2.17279c-10.12552,-0.72967 -20.14242,-2.94238 -30.21475,-4.44455c-5.89327,-0.87893 -11.79946,-1.67108 -19.32706,-2.7315c1.63582,2.39959 2.26418,3.67856 3.21031,4.64715c4.02745,4.12308 8.08936,8.21671 12.25589,12.19837c3.08606,2.94915 6.05277,6.17566 9.60061,8.45788c7.78558,5.00821 15.74545,9.80115 23.93511,14.10996c8.18406,4.3059 16.4151,8.99734 25.19529,11.59097c15.56585,4.59811 31.62368,7.32254 47.99331,7.32004c13.49921,-0.00208 26.99838,0.00018 40.49759,-0.0007c6.99958,-0.00046 14.0311,0.42425 20.99192,-0.09629c13.68112,-1.02304 27.32345,-2.56708 40.9808,-3.9061c5.68542,-0.5574 11.40475,-0.9042 17.0433,-1.77163c7.78644,-1.19788 15.51422,-3.99634 23.26148,-3.97589c16.16122,0.0426 31.27478,-5.61957 47.07989,-7.07596c1.60974,-0.14835 3.90699,0.98456 4.85572,2.27795c0.52539,0.71625 -0.6601,3.59397 -1.8349,4.43482c-1.69251,1.21139 -4.05036,1.56744 -6.17536,2.07419c-1.41815,0.33819 -3.14343,-0.11783 -4.35455,0.50918c-5.06421,2.62167 -10.11646,4.62284 -16.04639,4.6901c-4.08624,0.04632 -8.20349,1.41244 -12.21966,2.50823c-4.61475,1.25904 -9.07074,3.79487 -13.70859,4.10892c-6.68735,0.45276 -12.55798,5.31278 -19.58475,3.27967c-0.48505,-0.14039 -1.15744,0.45843 -1.76535,0.63607c-3.81366,1.11451 -7.57922,2.48554 -11.46359,3.24616c-7.10245,1.39072 -14.31156,2.23776 -21.41211,3.63672c-10.09152,1.98822 -20.10513,4.36996 -30.19095,6.38934c-6.01684,1.20468 -12.10257,2.07312 -18.1684,3.02173c-2.71557,0.42471 -4.0371,1.75906 -3.57812,4.60376c0.68921,4.27164 1.43536,8.53732 1.98178,12.82788c0.75965,5.9649 1.31021,11.95621 2.04059,17.92514c0.46109,3.76852 3.70169,5.04279 6.93991,2.84924c0.71222,-0.48245 1.4755,-0.92932 2.27506,-1.23706c15.7434,-6.0592 31.4273,-12.28244 47.26882,-18.07434c11.64045,-4.25592 23.42203,-8.1625 35.27588,-11.78216c5.52362,-1.68674 11.41788,-2.11713 17.05469,-3.48554c8.5448,-2.07434 17.08725,-4.22729 25.4758,-6.84363c3.57642,-1.11547 6.46857,-0.92166 7.53119,2.55777c1.27344,4.16959 -1.77338,5.69687 -5.45892,6.74185c-8.27222,2.34556 -16.52588,4.82349 -24.61606,7.72455c-7.63187,2.73679 -15.10651,5.9433 -22.53974,9.19587c-11.29382,4.94183 -22.72631,9.64801 -33.66729,15.29278c-11.7583,6.06641 -23.01914,13.0975 -34.49305,19.71457c-5.75058,3.31644 -7.82369,6.67032 -4.87869,11.33597c5.24402,8.30786 11.54093,15.96051 17.61865,23.7138c0.45206,0.57666 3.14423,0.27613 3.98469,-0.49725c2.39544,-2.20441 4.04202,-5.28366 6.57037,-7.27209c11.21133,-8.81705 22.11557,-18.1789 34.10882,-25.80591c13.16364,-8.3714 27.25248,-15.34967 41.22519,-22.36316c7.94547,-3.98813 16.81735,-6.18781 24.59207,-10.43692c4.55988,-2.49216 6.86945,-1.65433 9.72632,2.02392c-1.88079,2.13889 -3.45483,4.94532 -5.84777,6.44425c-5.43506,3.40442 -11.48536,5.83026 -16.90259,9.25906c-11.05378,6.99649 -22.06305,14.10245 -32.68106,21.73325c-6.27909,4.51263 -12.09842,9.79568 -17.54126,15.30819c-6.82349,6.91086 -13.07618,14.38804 -19.52341,21.66672c-4.32514,4.88288 -5.20456,11.18348 -1.71863,13.81684c6.69754,5.05963 13.44638,10.08392 20.48529,14.64196c2.61518,1.69355 6.10373,2.03827 8.25769,2.70728c3.68704,-7.44299 6.31192,-14.16602 10.15415,-20.10089c3.91528,-6.04761 9.51031,-10.99811 13.51544,-16.99921c8.24573,-12.35516 20.92032,-19.9238 31.37924,-29.85562c5.90399,-5.60645 13.38715,-9.52322 19.96991,-14.45355c3.03619,-2.27402 6.19745,-2.10645 7.92639,0.47027c1.59931,2.38364 0.8299,5.45868 -2.11529,7.70505c-5.73841,4.37677 -11.28016,9.03391 -16.68152,13.82501c-9.81867,8.70932 -16.82044,19.78669 -24.59778,30.1756c-3.60083,4.80994 -5.64069,10.45368 -7.67172,16.27875c-2.38626,6.84381 -5.59186,13.42072 -6.84494,20.66913c-0.17478,1.01111 -0.36392,2.28125 0.07589,3.09515c3.06809,5.67816 11.53824,7.06903 16.40262,3.29621c7.211,-5.59296 14.11841,-11.5763 21.29993,-17.20875c6.60559,-5.18072 13.24811,-10.34142 20.1546,-15.10461c8.48492,-5.85168 17.15491,-11.45496 25.94983,-16.83026c5.43683,-3.32282 11.16937,-6.20044 16.92328,-8.95618c7.73395,-3.70413 15.43268,-7.6427 23.52026,-10.37368c3.55713,-1.20112 8.51929,-4.43064 12.80469,1.7785c-2.58179,2.13058 -4.88647,4.58154 -7.66705,6.22937c-10.43537,6.18417 -21.48883,11.4382 -31.42432,18.32034c-9.34058,6.4701 -17.81793,14.27753 -26.21326,21.99866c-10.93335,10.05517 -21.47485,20.54138 -32.04736,30.98138c-3.33081,3.28913 -6.31238,6.95057 -9.27173,10.5896c-1.5437,1.8982 -2.41009,4.38465 -4.07269,6.14142c-4.52698,4.78351 -9.54022,9.11646 -13.95081,13.99835c-8.15496,9.02643 -15.42688,18.92969 -24.15228,27.34174c-10.76233,10.37579 -23.09839,19.11603 -33.89642,29.4588c-11.32993,10.85217 -24.64023,18.84674 -37.72873,26.87085c-13.38648,8.20691 -26.86643,16.50751 -41.29337,23.05609c-11.13992,5.05646 -21.85598,11.04791 -32.75058,16.64301c-2.9718,1.52624 -5.79193,3.41607 -8.88107,4.63293c-10.06506,3.96509 -20.29196,7.52295 -30.32742,11.55872c-14.14429,5.68823 -28.18546,11.63403 -42.24478,17.53168c-5.30549,2.22552 -10.40909,4.99883 -15.83008,6.86932c-13.23441,4.56677 -26.60691,8.73236 -39.91085,13.09894c-6.99466,2.29577 -13.93478,4.76068 -20.95066,6.98809c-5.28963,1.67939 -10.66048,3.10297 -16.04297,4.65418c0.49881,1.32898 0.57116,2.2655 1.07641,2.75769c9.48667,9.24261 19.00197,17.98602 32.41356,22.03748c5.47156,1.65295 9.36257,0.64349 13.52831,-1.1551c10.39827,-4.48944 20.57808,-9.48614 30.83203,-14.30804c11.98822,-5.63757 24.04391,-11.14032 35.9165,-17.01257c9.62967,-4.76294 19.01743,-10.01337 28.53906,-14.99677c8.98658,-4.70331 17.92899,-9.50213 27.04337,-13.94604c5.54361,-2.70288 11.39511,-4.76935 17.06726,-7.21686c1.63831,-0.70691 2.94641,-3.92371 4.81763,-0.15509c1.41073,2.84125 0.64444,4.82867 -1.77832,6.52051c-2.65366,1.85302 -5.17975,3.90838 -7.9336,5.59448c-7.90625,4.84094 -15.95608,9.44818 -23.84323,14.31927c-8.44729,5.21717 -16.79101,10.60303 -25.14434,15.97065c-3.49174,2.24365 -6.81687,4.75158 -10.34907,6.92602c-7.22601,4.44837 -14.60372,8.65155 -21.80395,13.1402c-10.08081,6.28442 -20.05383,12.74164 -30.08012,19.11371c-1.76529,1.12195 -3.71772,2.00476 -5.31434,3.32403c-2.5466,2.10413 -3.11994,3.75214 0.08031,6.60816c8.20067,7.31872 16.92597,13.61938 27.5008,16.76666c2.57107,0.76532 6.15612,0.43494 8.49926,-0.82935c4.7905,-2.58447 9.01779,-6.1986 13.54321,-9.29187c8.24735,-5.63751 16.616,-11.10046 24.79099,-16.8399c4.9137,-3.44995 9.40103,-7.51385 14.35934,-10.89172c6.74796,-4.59711 13.93366,-8.55933 20.6102,-13.25123c5.61847,-3.9483 10.61509,-8.77404 16.17716,-12.81164c8.96753,-6.50983 18.15115,-12.72388 27.29602,-18.98614c2.13235,-1.46021 4.3508,-2.96961 6.75555,-3.81c2.62745,-0.91822 4.8537,0.0783 4.25458,3.36615c-0.29101,1.59729 -1.30829,3.35003 -2.52542,4.44464c-9.05923,8.14697 -18.25192,16.14563 -27.40124,24.1925c-10.27213,9.03437 -20.55692,18.05451 -30.80979,27.11066c-8.93185,7.88953 -17.811,15.83868 -26.74371,23.72717c-6.42285,5.672 -12.58505,11.70447 -19.43604,16.8075c-6.44803,4.80304 -7.56326,8.99676 -4.37195,17.35205c3.05466,7.99737 5.58396,16.19446 8.44117,24.26947c0.33178,0.93768 1.38626,2.40802 1.92599,2.33325c1.51386,-0.20953 3.30301,-0.74017 4.31946,-1.78821c2.75211,-2.83789 5.23035,-5.95398 7.68545,-9.06378c2.51947,-3.19147 4.64276,-6.7251 7.37024,-9.71612c4.21164,-4.61872 8.9671,-8.74201 13.17203,-13.36628c6.6814,-7.34784 12.83386,-15.1892 19.6944,-22.35833c8.8472,-9.24518 17.56061,-18.60065 26.24847,-27.98188c20.41812,-22.04779 42.24198,-42.79473 63.53787,-64.02703c1.84082,-1.83527 4.01767,-3.32898 5.98057,-5.04755c3.20095,-2.80243 6.29141,-5.7337 9.54177,-8.47644c5.22257,-4.40686 10.51389,-8.73322 15.82077,-13.03858c4.03592,-3.27423 8.14115,-6.46301 12.21552,-9.68981c-0.32889,-0.59418 -0.65781,-1.18836 -0.9867,-1.78254c-9.35711,2.14691 -18.76699,4.09131 -28.053,6.51105c-6.32911,1.64929 -12.45307,4.06946 -18.72577,5.9552c-9.42267,2.83264 -18.99674,5.19861 -28.31073,8.34265c-6.13752,2.07178 -11.91483,5.20008 -17.88746,7.77637c-2.17379,0.93774 -4.42178,2.19305 -6.68084,2.29358c-1.92154,0.08551 -3.90766,-1.27967 -5.86521,-2.00299c0.86725,-1.53668 1.36756,-3.58545 2.66816,-4.51746c4.54852,-3.25952 9.3576,-6.15845 14.09698,-9.14783c6.21976,-3.92327 12.37073,-7.96954 18.7323,-11.64996c5.46057,-3.15918 11.13699,-5.95593 16.78754,-8.77338c7.67807,-3.82836 15.20025,-8.10699 23.1867,-11.14941c14.57859,-5.55371 29.41593,-10.44055 44.22269,-15.37341c3.3216,-1.10657 7.08096,-0.87634 10.43079,-1.9256c6.97976,-2.1864 13.71963,-5.17609 20.751,-7.14795c5.41047,-1.51721 11.42719,-1.15814 16.61445,-3.11639c7.20159,-2.71869 14.44378,-3.96039 22.01989,-4.70691c7.01215,-0.69086 13.9126,-2.54139 20.85327,-3.92585c6.41785,-1.28021 12.81903,-2.64434 19.2367,-3.92559c5.67352,-1.13276 11.37909,-2.11194 17.03448,-3.32618c5.17304,-1.11065 10.28437,-2.50604 15.44776,-3.66497c5.64337,-1.26661 11.43689,-2.00806 16.94708,-3.69147c8.81274,-2.69226 17.49988,-5.82727 26.14136,-9.04077c11.45813,-4.26087 22.971,-8.4336 34.16803,-13.31488c6.54901,-2.85498 12.72509,-6.7179 18.71447,-10.66523c7.38935,-4.86981 14.41968,-10.28576 21.58753,-15.48998c6.18048,-4.48731 13.01355,-8.32911 18.36065,-13.65778c10.75696,-10.72003 21.05005,-21.96118 30.85639,-33.56061c6.91009,-8.17358 12.59949,-17.36902 19.02344,-25.96661c5.84228,-7.81916 11.92071,-15.46253 17.93139,-23.15497c5.92377,-7.58136 11.39655,-15.5958 17.974,-22.56433c7.44635,-7.88895 15.63184,-15.15033 23.9881,-22.09213c9.91974,-8.2407 20.34961,-15.86875 30.58588,-23.72654c6.92199,-5.3136 13.901,-10.55291 20.83545,-15.85043c3.09759,-2.36652 6.24768,-4.67969 9.1911,-7.22818c2.64117,-2.28686 2.23822,-4.22839 -0.92072,-5.96817c-3.11004,-1.71286 -5.83783,-4.13257 -8.97644,-5.77832c-6.95489,-3.64676 -13.93829,-7.29025 -21.14191,-10.39758c-7.41412,-3.19818 -15.08782,-5.80115 -22.67736,-8.58429c-7.01288,-2.57166 -14.06171,-4.82349 -21.74457,-4.34497c-5.14643,0.32055 -10.33014,0.1325 -15.49506,0.04614c-10.97253,-0.18347 -21.85791,-0.31534 -32.13067,4.75485c-3.48828,1.72168 -7.56336,2.30231 -11.41101,3.23624c-4.82233,1.17047 -9.78455,1.85217 -14.50873,3.31759c-6.35089,1.96997 -12.50501,4.56522 -18.79474,6.74445c-4.97125,1.72244 -10.14142,2.92133 -15.00586,4.89005c-7.67529,3.10632 -15.2832,6.05001 -23.81403,5.10836c-2.21069,-0.24405 -4.47125,-0.03674 -7.95184,-0.03674c1.60315,2.26355 2.29712,3.69443 3.38233,4.70511c9.56011,8.90335 19.35015,17.53558 30.88012,23.88281c3.25354,1.79108 3.83063,4.70264 2.25092,7.31735c-1.81928,3.01117 -4.72943,3.09769 -7.54547,0.52793c-0.86445,-0.78879 -2.25568,-1.05667 -3.44947,-1.41846c-5.16595,-1.56543 -10.44683,-2.81314 -15.49102,-4.69818c-3.57374,-1.33554 -6.75922,-3.67282 -10.2519,-5.27029c-7.78173,-3.55924 -15.7099,-6.80363 -23.43609,-10.47574c-1.99262,-0.94706 -3.37641,-3.10678 -5.18067,-4.53116c-5.36773,-4.23761 -11.19946,-7.97187 -16.13153,-12.65876c-9.45044,-8.98071 -19.19147,-17.62789 -26.80261,-28.51074c-7.57355,-10.82898 -16.46313,-20.73575 -24.74115,-31.07449c-5.04327,-6.29877 -9.54675,-13.11127 -15.14307,-18.86606c-7.87317,-8.09616 -16.87207,-15.0964 -24.75988,-23.17978c-7.06372,-7.23889 -15.87983,-11.54358 -24.19343,-16.8063c-10.8352,-6.85895 -22.04437,-12.95273 -33.86041,-17.85416c-12.65881,-5.25098 -25.43951,-10.22018 -38.26312,-15.05756c-8.60538,-3.24618 -17.34842,-6.13858 -26.08322,-9.02783c-11.5094,-3.80694 -23.02988,-7.59064 -34.62219,-11.13377c-11.29605,-3.45261 -22.62528,-6.83425 -34.05753,-9.79271c-10.40436,-2.69246 -21.02679,-4.53941 -31.43985,-7.20212c-8.01855,-2.0504 -15.84463,-4.84442 -23.78656,-7.20598c-9.91058,-2.94697 -19.83505,-5.85069 -29.78757,-8.65203c-5.24121,-1.47526 -10.62259,-2.47596 -15.81482,-4.09464c-4.27084,-1.33145 -8.2749,-3.51399 -12.54046,-4.868c-8.95621,-2.84294 -18.07944,-5.16887 -26.99823,-8.11795c-9.24558,-3.05713 -18.28203,-6.74182 -27.49817,-9.89413c-11.19304,-3.82849 -22.57626,-7.11717 -33.69284,-11.14786c-8.93283,-3.23888 -17.59079,-7.23573 -26.37119,-10.89511c-14.83332,-6.18204 -29.81691,-12.03316 -44.44122,-18.67537c-8.04591,-3.65437 -15.15213,-9.45193 -23.28982,-12.81058c-9.40314,-3.88092 -17.63297,-9.3378 -25.85769,-15.0333c-0.87811,-0.60806 -2.37633,-0.32062 -4.94416,-0.59209c1.54622,6.4196 2.55585,12.07632 4.31617,17.4889c1.61152,4.95504 3.21009,10.26471 6.26223,14.33152c7.52841,10.03117 15.24229,20.08155 24.06751,28.9432c12.61093,12.66297 28.3985,20.93402 44.55881,28.29126c6.3205,2.87749 12.8793,5.22682 19.26931,7.95775c5.26931,2.252 10.34046,5.00285 15.69433,7.01381c8.72878,3.27863 17.65564,6.0264 26.42127,9.21188c4.75271,1.72719 9.23992,4.21895 14.03765,5.77922c5.28524,1.71878 10.80747,2.69631 16.19104,4.12979c3.21459,0.85593 6.33284,2.07219 9.54511,2.93848c4.48111,1.20848 9.10657,1.95012 13.49689,3.41208c8.18274,2.72484 15.94119,6.92412 24.92862,6.64192c0.77069,-0.02423 1.57415,0.27301 2.32711,0.526c4.36069,1.46512 8.65403,3.16526 13.07785,4.39991c6.59876,1.84167 13.30048,3.31097 19.93158,5.04156c3.39454,0.88596 6.6872,2.18866 10.10355,2.9584c5.14361,1.15894 10.35303,2.02784 15.53857,2.99811c7.28885,1.36383 14.58426,2.69281 21.87165,4.06455c6.18905,1.16501 12.401,2.23239 18.54782,3.59176c7.51294,1.66156 14.91238,3.87613 22.4624,5.32099c10.64853,2.03781 21.40823,3.4873 32.08685,5.37768c9.99668,1.76966 19.9914,3.60343 29.88272,5.86481c1.74662,0.39935 2.98133,3.03763 4.45243,4.64194c-1.42478,0.72879 -2.80976,1.99219 -4.28064,2.10165c-11.60782,0.86392 -22.69565,-1.14602 -33.89606,-4.59396c-8.24689,-2.53873 -17.33661,-2.38886 -26.06515,-3.29877c-7.59546,-0.79181 -15.21344,-1.36578 -22.81473,-2.10538c-0.92194,-0.08969 -1.77835,-0.72894 -2.70493,-0.91372c-8.48932,-1.69296 -16.94986,-3.57932 -25.4946,-4.92966c-7.0798,-1.1188 -14.30313,-1.32376 -21.38794,-2.4184c-8.2615,-1.27642 -16.43289,-3.12664 -24.6593,-4.6416c-8.58014,-1.58014 -17.17254,-3.0964 -25.77331,-4.56006c-3.29621,-0.56094 -6.63031,-0.89923 -9.92182,-2.26354c-0.92172,-2.70356 2.42053,-7.00208 -2.59857,-8.0976c-5.59179,-1.22049 -6.37418,-0.20526 -7.2446,6.89529m397.90171,-40.57547c-1.77399,-3.04728 -3.40955,-6.18852 -5.38434,-9.09959c-0.89954,-1.32601 -2.39173,-2.87409 -3.76343,-3.0318c-0.88483,-0.10173 -2.39392,1.9789 -3.01209,3.35584c-2.98071,6.63906 -9.00006,12.11058 -7.95587,20.34663c0.06086,0.48009 -0.66211,1.06348 -1.02838,1.59318c-2.72314,3.93851 -1.67877,7.98028 0.06793,11.77718c5.27307,11.46219 15.21936,19.20718 23.43933,28.22681c7.41993,8.14184 16.41218,14.83322 24.33179,22.55328c1.43732,1.40115 2.04981,5.09436 1.26386,6.9928c-1.19013,2.87451 -4.22333,1.03512 -6.11237,0.11401c-2.99414,-1.45996 -5.66498,-3.57388 -8.50806,-5.35452c-7.94873,-4.97833 -15.90997,-9.93656 -23.87945,-14.88156c-1.81702,-1.12744 -3.88953,-1.93109 -5.49506,-3.29511c-5.13586,-4.3634 -10.08563,-8.945 -15.15271,-13.39056c-2.26281,-1.98526 -4.6026,-2.58936 -6.2749,0.64944c-3.26581,6.32483 -6.50098,12.67072 -9.48895,19.12812c-0.44568,0.96313 0.10907,2.95895 0.9082,3.82269c2.52429,2.72845 5.7403,4.86014 8.05091,7.73529c8.36462,10.40823 16.6668,20.87884 24.62005,31.60223c9.44,12.72809 18.27368,25.90842 27.80194,38.56775c5.52503,7.34049 11.83563,14.09858 17.96985,20.96036c0.77893,0.87116 2.81219,1.37619 3.96197,1.0343c6.09089,-1.81106 12.13672,-3.80771 18.0962,-6.01523c4.64691,-1.72128 9.04181,-4.15515 13.73492,-5.71069c5.82538,-1.93085 8.63843,-4.94861 6.55963,-10.13522c-3.34497,-8.34595 2.42786,-15.13465 2.92182,-22.81183c0.33319,-5.17886 3.85064,-10.25757 6.35998,-15.16843c4.29181,-8.39905 9.32739,-16.43774 13.28797,-24.98135c5.26532,-11.35816 10.21759,-22.90427 14.4671,-34.67197c2.04584,-5.66543 2.16064,-12.02548 3.17682,-18.06647c0.55414,-3.29461 2.00042,-6.68884 1.58838,-9.84826c-1.11548,-8.55336 -3.00245,-17.00653 -4.5987,-25.49655c-0.50274,-2.67409 -0.99566,-5.35227 -1.59607,-8.00528c-1.09265,-4.82848 -2.19354,-9.65711 -3.41961,-14.45281c-1.17701,-4.60397 -2.30549,-9.23977 -3.86237,-13.72017c-0.98291,-2.82852 -2.89893,-5.31903 -4.07074,-8.09843c-2.828,-6.70737 -5.33874,-13.54967 -8.22082,-20.23258c-2.0766,-4.81507 -4.51441,-9.47631 -6.84528,-14.1793c-4.56915,-9.21948 -9.14063,-18.43817 -13.78082,-27.622c-2.80194,-5.54563 -5.65149,-11.07098 -8.64508,-16.51448c-1.46515,-2.66417 -3.30768,-5.12083 -5.71222,-8.78959c-0.7284,2.72957 -0.80274,3.7405 -1.24481,4.55077c-4.16047,7.62486 -5.64515,15.97856 -6.56312,24.4445c-0.93145,8.59024 1.94025,16.49925 4.85498,24.37044c1.09858,2.96665 2.18183,5.94671 3.08533,8.97634c2.37048,7.94812 4.55341,15.95308 7.00409,23.8757c0.64209,2.07572 2.25849,3.84252 2.95587,5.91021c1.58045,4.68641 2.68628,9.53543 4.32392,14.1994c1.6856,4.80069 3.94012,9.40085 5.64556,14.19554c2.4986,7.02493 5.03125,14.06439 6.95362,21.25693c1.02905,3.85028 0.95593,8.03075 1.04584,12.06964c0.02063,0.92917 -1.23505,2.52545 -2.07978,2.65381c-0.82892,0.12594 -2.27441,-1.01909 -2.7735,-1.96349c-3.12335,-5.91112 -6.00042,-11.95169 -9.07086,-17.89162c-2.91937,-5.64779 -5.99963,-11.21217 -8.96472,-16.83668c-3.04718,-5.78018 -6.03607,-11.59097 -9.05859,-17.38415c-3.00916,-5.76758 -5.96356,-11.56496 -9.05878,-17.28612c-4.25012,-7.85585 -8.63129,-15.6407 -12.91058,-23.48098c-1.32947,-2.43589 -5.43268,-2.70867 -6.91059,-0.27426c-3.85186,6.34476 -7.76745,12.6597 -11.35595,19.15326c-5.03608,9.11319 -5.18836,18.87606 -1.07709,28.07643c4.42859,9.9105 10.09241,19.27718 15.36749,28.79792c2.7757,5.00961 5.81476,9.87713 8.83997,14.74348c2.87243,4.62047 5.81414,9.20128 8.84997,13.71574c3.04901,4.53409 5.73542,9.4834 9.54798,13.27918c3.13427,3.12039 5.07452,5.44119 1.55181,10.08948c-2.08856,-0.63993 -5.14917,-0.67871 -6.75537,-2.2266c-6.68695,-6.44384 -13.04266,-13.24426 -19.32043,-20.09661c-9.47351,-10.34067 -18.78052,-20.83388 -28.68359,-31.80439m-6.53675,145.58704c3.40393,0.47772 4.88672,-0.86142 4.54016,-4.40744c-0.22607,-2.31336 0.33173,-5.03336 -3.34851,-4.54449c-2.11035,0.28033 -5.60266,-1.55686 -5.59399,2.66348c0.00513,2.50323 -1.83972,6.5556 4.40234,6.28845m0.99024,294.00116c-3.40381,-0.47754 -4.88672,0.86151 -4.54023,4.40747c0.22608,2.31348 -0.33123,5.03314 3.3487,4.54462c2.11041,-0.28022 5.60266,1.55639 5.59393,-2.6637c-0.00519,-2.50323 1.83954,-6.55554 -4.4024,-6.28839m-404.09427,89.99719c5.33966,0.26459 3.49237,-3.789 3.49591,-6.29089c0.00598,-4.21893 -3.48749,-2.37946 -5.59763,-2.659c-3.68353,-0.48797 -3.11624,2.23895 -3.34387,4.54871c-0.35013,3.55255 1.1467,4.8786 5.44559,4.40118m258.52219,-499.80127c0.02532,-0.8276 -0.02955,-1.66702 0.08978,-2.48083c0.54278,-3.70108 -0.96881,-4.85779 -4.70227,-4.84043c-3.66205,0.01709 -4.51264,1.43216 -4.36164,4.72089c0.22376,4.87241 2.1167,5.69159 8.97413,2.60037z" id="svg_2"/>
  <path fill="#FFFFFF" d="m833.99969,649.83337c-3.73547,-3.18847 -7.74432,-6.12756 -11.02874,-9.72754c-0.90674,-0.99377 -0.41559,-4.95288 0.74249,-5.8363c4.14502,-3.16199 9.23828,-5.12286 13.22437,-8.43805c3.24072,-2.69531 5.86273,-6.42541 7.95532,-10.14831c4.0246,-7.16047 6.21185,-15.2934 12.70404,-21.12482c2.20733,-1.98273 2.95575,-5.58734 4.37744,-8.44757c4.46484,-8.98248 8.87811,-17.99158 13.47583,-26.90558c0.51642,-1.00122 2.22266,-1.31744 3.13104,-2.20367c1.55976,-1.52161 3.91577,-3.08222 4.21015,-4.90546c1.77337,-10.98224 9.44592,-17.87891 16.73266,-25.00891c2.93628,-2.87311 8.48895,-1.14179 11.59631,3.64215c4.9889,7.68072 9.73041,15.52563 14.43873,23.38373c2.6145,4.36364 5.24054,8.76306 7.33331,13.38543c2.3468,5.18348 4.10742,10.63306 6.10394,15.974c1.38147,3.69556 2.91095,7.34925 4.03748,11.12226c0.90881,3.04351 1.46466,6.21716 1.88922,9.37182c0.28399,2.10981 -0.35529,4.39362 0.15588,6.41297c1.09223,4.31506 2.75611,8.48761 -0.52057,12.60986c-0.44995,0.5661 -0.6037,1.56445 -0.52478,2.32428c1.03076,9.92804 -3.74102,18.04547 -8.229,26.20447c-2.46558,4.48242 -5.45764,8.67608 -7.90375,13.16797c-0.86285,1.58459 -0.80829,3.66876 -1.17254,5.52484c2.05499,0.13885 4.41607,1.00256 6.11035,0.28717c6.26642,-2.64636 12.45788,-4.9253 19.46728,-4.56641c6.31641,0.32343 12.66254,0.03931 18.99524,0.07416c14.7984,0.08148 27.25531,5.75311 37.9997,15.73132c3.92297,3.64325 7.87359,7.44452 12.41149,10.1778c3.57563,2.1535 8.33124,2.27698 12.08771,4.22046c4.02625,2.08307 7.90479,4.83581 11.08863,8.04852c2.86596,2.89197 0.47399,5.81836 -2.49622,6.51495c-6.38416,1.49732 -12.63135,3.28516 -19.6449,1.68988c-3.6004,-0.81884 -8.19323,1.92029 -12.13171,3.54938c-10.50806,4.34638 -18.49628,12.0846 -26.21008,20.1322c-1.18012,1.23127 -2.42597,2.39954 -3.60346,3.63318c-6.74951,7.07099 -13.08752,14.42005 -16.86053,23.64038c-0.54194,1.32416 -2.00928,2.24152 -2.90253,3.45459c-4.70502,6.38935 -8.82867,13.30469 -14.16565,19.10706c-7.59521,8.25763 -14.70691,17.12836 -24.86529,22.77185c-4.05781,2.25427 -7.04718,6.42163 -11.09315,8.71002c-5.91851,3.34784 -12.22851,6.10828 -18.59582,8.52973c-7.11676,2.70635 -14.42621,4.96038 -21.76239,7.01678c-4.90832,1.37573 -9.99365,2.15344 -15.02765,3.04041c-9.84192,1.73382 -19.79199,2.96221 -29.5296,5.14715c-8.18585,1.83667 -16.88159,2.19751 -24.25342,6.89771c-2.33673,1.48986 -4.526,3.23095 -6.68109,4.98217c-8.32776,6.76691 -16.91974,13.24976 -24.83453,20.47266c-8.76422,7.99793 -16.89716,16.68787 -25.30097,25.08044c-5.55804,5.55048 -11.24475,10.98005 -16.62976,16.69379c-7.48596,7.94275 -14.83697,16.01813 -22.06592,24.19574c-4.82599,5.45935 -9.40875,11.13947 -13.96661,16.82794c-2.97925,3.71814 -5.71863,7.62842 -8.56628,11.45209c-1.78907,2.40228 -4.1344,4.41009 -7.08136,3.0824c-1.34668,-0.60675 -2.00708,-3.13904 -2.61292,-4.92231c-3.72028,-10.95001 -7.37177,-21.92388 -10.96893,-32.91516c-1.48145,-4.52685 -3.34375,-7.80847 -9.1167,-8.23443c-4.32306,-0.31897 -8.53241,-3.02863 -11.08905,-6.82465c-4.25885,-6.3233 -10.82697,-8.86902 -17.22797,-12.0097c-4.31976,-2.11957 -8.1781,-5.18097 -12.23767,-7.8291c-2.70978,-1.7677 -5.97363,-3.06427 -8.0036,-5.42096c-4.99793,-5.80213 -9.42682,-12.09436 -13.98621,-18.06092c3.31299,-3.47754 6.24213,-3.86389 10.21393,-3.97131c5.36108,-0.14484 10.66443,-2.93793 15.95734,-4.70032c1.19781,-0.3988 2.29687,-1.85016 3.36322,-1.77057c10.73327,0.80103 18.71722,-7.43921 28.87555,-8.63861c3.01764,-0.35626 5.74756,-2.68573 8.7605,-3.62665c13.02673,-4.06829 25.0769,-10.20117 37.05774,-16.62359c6.64843,-3.56391 14.00811,-5.78449 20.74072,-9.21247c6.70843,-3.41558 13.12036,-7.44604 19.5022,-11.46142c6.24865,-3.93152 12.55596,-7.84906 18.37139,-12.37195c9.31916,-7.2478 18.25367,-14.99011 28.43744,-23.42316c-5.35803,-2.31036 -9.21759,-4.49987 -13.36523,-5.65362c-8.64392,-2.40442 -14.97357,-8.4043 -21.90094,-13.41382c-11.31976,-8.18616 -17.18152,-20.81293 -24.96552,-31.86072c-0.33923,-0.48138 -0.32489,-1.2304 -0.41906,-1.86309c-0.78107,-5.2475 -1.40656,-10.52301 -2.35657,-15.73951c-1.22003,-6.69964 2.13043,-10.69555 8.87109,-10.25811c4.80512,0.31182 7.20636,3.62091 7.72504,11.78936c3.33935,-0.96167 6.57477,-1.56408 9.54449,-2.80322c16.31733,-6.8089 33.11744,-11.92273 50.52967,-15.04504c1.32782,-0.23816 2.51757,-1.24622 3.91247,-1.96949c0.89667,1.25275 1.81031,2.5293 3.28522,4.59003c-2.42236,1.47064 -4.65271,3.27295 -7.19678,4.29083c-10.50055,4.20111 -21.36072,7.60273 -31.56506,12.40979c-6.94629,3.27228 -13.14234,8.22962 -19.35993,12.85535c-0.92102,0.6853 -0.64947,3.92395 0.03626,5.58179c0.88769,2.14605 2.74536,3.89087 4.96277,6.84356c16.65094,-11.74426 32.60119,-25.7868 53.40649,-31.14367c2.49054,4.8833 1.5788,6.74005 -2.87622,9.27752c-9.12506,5.19745 -18.25488,10.32141 -25.15924,18.76368c-4.04846,4.95025 -9.48181,8.76788 -14.2832,13.08685c3.68615,3.48608 6.6748,6.50415 9.87732,9.27496c2.19836,1.90198 4.07538,2.04791 5.78094,-1.14312c3.0304,-5.66956 6.17597,-11.34705 9.93482,-16.54255c6.6466,-9.18713 15.68444,-15.77319 25.72552,-20.76849c1.27405,-0.63379 4.26642,2.18658 6.68903,3.53235c-5.95734,5.42267 -11.43817,10.1297 -16.55292,15.20563c-2.05457,2.03906 -3.31134,4.88409 -4.92035,7.36938c-2.38532,3.68445 -4.64294,7.4588 -7.17578,11.03857c-2.29077,3.23761 -4.01367,7.1344 -0.71179,9.77558c3.57824,2.86218 7.54559,-0.44385 9.68652,-3.05445c9.07153,-11.06152 20.68634,-18.34527 33.40338,-24.28179c3.69666,-1.72559 7.04834,-4.2536 10.82947,-5.7088c1.96429,-0.75586 5.05914,-0.78846 6.69202,0.29107c2.99194,1.97803 0.70117,4.77441 -1.02063,6.04767c-4.12329,3.04907 -8.83814,5.28741 -13.04352,8.23877c-5.03974,3.53699 -9.90961,7.341 -14.6413,11.28345c-3.5393,2.94891 -6.93384,6.12622 -10.0387,9.5252c-2.64843,2.89948 -4.57983,6.4513 -7.21026,9.37043c-3.75708,4.16949 -7.98413,7.91333 -11.78247,12.0484c-3.28894,3.58063 -8.45337,5.69476 -9.16852,11.38189c-0.05182,0.41181 -0.53925,1.00043 -0.93066,1.10389c-8.31891,2.19818 -11.58869,10.43188 -17.92743,14.93017c-6.69086,4.74787 -13.68909,9.06305 -20.56043,13.55597c-2.65362,1.73511 -5.24676,3.58374 -8.00885,5.12769c-5.99518,3.35125 -12.0274,6.6455 -18.14398,9.76812c-7.64575,3.90326 -15.32684,7.75141 -23.12708,11.33057c-2.98144,1.36804 -6.41809,1.7085 -9.50244,2.89429c-10.66809,4.10138 -21.15881,8.69287 -31.93737,12.46887c-8.43097,2.95355 -17.22419,4.85974 -25.7707,7.50818c-1.67559,0.51922 -2.95794,2.30725 -4.77435,3.79999c3.20032,3.04058 5.39527,6.18798 8.41028,7.69854c3.16156,1.58405 7.49921,2.93079 10.63159,2.01544c6.16309,-1.80096 11.86914,-5.195 17.72406,-8.0136c5.13452,-2.47181 10.27521,-4.94379 15.29627,-7.63386c3.35479,-1.79736 6.36303,-4.26928 9.77587,-5.92462c6.9997,-3.39496 14.16718,-6.44378 21.59491,-9.78332c3.28907,2.07873 3.61676,4.84686 0.10083,7.48291c-4.36273,3.27093 -8.92584,6.28753 -13.51129,9.24518c-4.83429,3.11834 -9.75409,6.11078 -14.71612,9.02258c-4.67694,2.74438 -9.51593,5.21399 -14.17389,7.98871c-3.68433,2.19482 -7.20233,4.669 -11.08679,7.21051c2.6311,2.72424 4.29394,5.09137 6.52832,6.62713c4.88379,3.35694 14.80401,1.1305 19.30115,-3.55139c2.87329,-2.99151 6.12756,-5.69525 9.51635,-8.0971c6.83118,-4.84174 13.86426,-9.39905 20.82666,-14.05481c4.92609,-3.29413 9.80188,-6.67536 14.87427,-9.7284c0.93628,-0.56347 3.83704,0.07428 3.90027,0.46778c0.33624,2.09259 0.86865,4.87811 -0.18274,6.31317c-1.98334,2.70703 -4.98035,4.6806 -7.59345,6.91528c-5.4447,4.65625 -10.82781,9.39008 -16.39434,13.89673c-7.07868,5.73083 -14.19489,11.43011 -21.52814,16.82605c-4.1416,3.04755 -5.77185,8.33404 -3.11615,12.97143c1.40332,2.45057 3.03064,4.77289 4.55682,7.15314c2.04767,-2.05621 4.25324,-3.97919 6.11786,-6.18988c13.78443,-16.34174 29.05554,-31.25812 44.06317,-46.44055c9.63941,-9.75159 19.47962,-19.16577 30.86579,-26.9082c2.26837,-1.54248 3.73553,-4.26319 5.5722,-6.44056c-0.4137,-0.60858 -0.82745,-1.21722 -1.24115,-1.8258c-4.06756,1.87726 -8.1419,3.74017 -12.19562,5.64691c-0.63641,0.29938 -1.18243,1.15601 -1.76471,1.15063c-7.89239,-0.07263 -14.48956,3.98786 -21.44897,6.76899c-4.74835,1.89752 -9.6391,1.81408 -10.55975,-1.14948c-1.52204,-4.89905 2.73242,-6.4118 5.75988,-7.97992c5.48456,-2.84082 11.24524,-5.16296 16.94874,-7.56366c12.78417,-5.38122 25.39147,-11.2962 38.48248,-15.79632c9.04663,-3.1098 18.78631,-4.19495 28.20727,-6.22669c8.49152,-1.8313 16.95575,-3.79162 25.46088,-5.55566c5.19165,-1.07684 10.531,-1.54303 15.63562,-2.91156c6.13098,-1.6438 11.97101,-4.43067 18.13501,-5.88147c14.01984,-3.29968 25.59332,-11.15753 37.65894,-18.44306c13.76995,-8.31475 23.19714,-20.64447 32.35552,-33.04882c7.14936,-9.68323 14.68018,-18.84735 22.84241,-27.66761c8.26978,-8.93652 16.94452,-17.05352 27.79077,-22.77764c3.68347,-1.94404 6.94086,-4.7085 10.34583,-7.16346c3.0163,-2.17492 2.67615,-3.7973 -0.53205,-5.59704c-6.58807,-3.69605 -12.60626,-9.08997 -19.63183,-11.15125c-8.76776,-2.57263 -18.11694,-7.47162 -27.61078,-1.45972c-0.40375,0.25574 -0.88678,0.66333 -1.28314,0.61261c-6.92877,-0.88787 -12.53943,3.06684 -18.74317,4.89686c-7.13092,2.10351 -14.49292,3.41381 -21.7207,5.20495c-2.13879,0.53003 -4.41144,1.18921 -6.1167,2.46533c-0.66803,0.5 -0.54468,3.49622 0.25629,4.24463c2.2063,2.06171 4.87005,3.6969 7.52203,5.20276c3.39588,1.92816 2.78131,5.13593 1.59888,7.36035c-0.56299,1.05908 -4.47052,1.34583 -6.2522,0.57343c-6.83783,-2.96424 -13.69952,-6.05799 -20.03113,-9.95117c-5.77789,-3.5528 -10.93463,-8.13611 -16.25445,-12.4032c-1.96833,-1.5788 -3.71124,-3.47022 -5.40106,-5.35852c-5.21003,-5.82245 -10.41571,-11.65167 -15.48767,-17.59381c-4.45337,-5.21741 -8.72419,-10.59076 -12.79419,-16.24677c4.65704,-1.83484 1.74957,-5.35089 2.38214,-7.8789c-2.6391,-0.64454 -5.27814,-1.28907 -8.81971,-2.15406c0,3.00519 0,4.76441 0,6.52368m94.00031,-39.2163c-0.76428,-4.45038 -0.65442,-9.29712 -2.4588,-13.27582c-5.164,-11.38678 -7.08338,-24.08527 -14.87757,-34.47669c-3.55487,-4.7395 -5.13299,-10.95074 -7.70648,-16.44824c-0.43066,-0.92004 -1.4657,-2.3211 -2.04657,-2.24048c-1.05334,0.14637 -2.32061,1.04175 -2.86438,1.98871c-0.68237,1.18835 -0.9743,2.73755 -1.00567,4.14069c-0.19385,8.67175 1.33752,16.90429 5.85846,24.52386c1.51538,2.5542 2.11706,5.65589 3.09851,8.52033c2.27484,6.63916 4.0672,13.49694 6.97821,19.84271c1.49432,3.25763 1.1225,5.25812 -1.51746,6.49127c-2.59668,1.21289 -5.22235,0.35095 -6.42981,-2.72681c-0.92328,-2.35351 -1.57977,-4.83361 -2.70544,-7.08184c-4.00855,-8.00617 -10.04627,-14.89118 -12.48688,-23.81586c-1.03339,-3.77875 -5.95178,-5.35956 -7.78949,-3.3147c-3.53381,3.93219 -4.52954,16.75781 -1.45465,21.34888c6.29608,9.40051 12.88532,18.60992 18.96039,28.14862c1.13269,1.77862 1.46826,5.88177 0.34631,6.89929c-2.29687,2.08295 -5.46344,1.30444 -7.71283,-1.41516c-3.36151,-4.06415 -6.78528,-8.07886 -10.25793,-12.04864c-3.56409,-4.07429 -7.07581,-8.21601 -10.94409,-11.98578c-0.86463,-0.84266 -4.13746,-0.91138 -4.5752,-0.22901c-3.82074,5.95618 -1.71893,14.81476 3.9596,19.67847c5.16571,4.42444 10.30084,8.94263 14.92504,13.90796c1.49842,1.60901 1.33869,4.76227 1.93744,7.2091c-2.37695,0.12305 -5.35247,1.22321 -7.02618,0.19812c-6.84241,-4.19097 -13.47485,-8.79132 -19.7959,-13.73767c-2.95117,-2.30932 -4.72949,-2.11425 -7.09119,0.40045c-2.59131,2.75928 -0.94561,4.45728 0.88685,6.69483c6.7022,8.18414 13.39514,16.39258 19.67736,24.89783c3.88941,5.26574 6.85364,11.07837 11.7967,15.71521c6.22576,5.84015 5.8659,6.21747 13.23846,3.13586c0.58996,-0.24658 1.2279,-0.53314 1.84479,-0.53589c5.10534,-0.02295 6.30572,-3.53991 7.28991,-7.62817c1.45417,-6.04016 2.81378,-12.16626 5.03113,-17.94196c2.31494,-6.0299 5.40235,-11.79498 8.50476,-17.48339c4.51019,-8.2699 6.76068,-16.99817 6.4126,-27.35608m-188.95465,113.18872c0.4682,-2.51642 0.9364,-5.0329 1.4046,-7.54932c-2.18658,-0.34369 -4.88238,-1.60297 -6.40649,-0.75531c-1.33649,0.74304 -2.41474,4.43506 -1.68201,5.75909c0.83716,1.51276 3.80255,1.84772 6.6839,2.54554z" id="svg_3"/>
  <path fill="#FFFFFF" d="m756.04938,693c-2.96106,-0.40839 -5.47577,-0.8169 -8.77796,-1.35321c5.60761,-7.20654 11.69397,-10.6189 19.35315,-11.70538c10.68701,-1.51599 21.31562,-3.44239 31.97028,-5.18677c2.23285,-0.3656 4.47021,-0.70374 6.69238,-1.05249c0.91535,1.771 1.64044,3.17389 2.9931,5.79095c-3.55285,1.81214 -6.98577,4.41608 -10.82177,5.33124c-6.72614,1.60492 -13.74536,1.93677 -20.55323,3.25836c-4.81878,0.93561 -9.47241,2.69708 -14.23858,3.94086c-2.00537,0.52338 -4.11096,0.6626 -6.61737,0.97644z" id="svg_4"/>
  <path fill="#FFFFFF" d="m971.34131,688.01172c6.42755,0.15277 8.72778,3.2265 8.65869,11.01208c-0.05347,6.02625 -2.76636,9.07984 -8.31067,8.92701c-3.19684,-0.08808 -7.41382,1.55359 -8.63086,-3.33692c-1.77014,-7.11242 0.10657,-12.52698 4.85932,-15.05646c0.99499,-0.5296 2.00842,-1.02465 3.42352,-1.54571z" id="svg_5"/>
  <path fill="#FFFFFF" d="m834.35327,649.91058c-0.35358,-1.83648 -0.35358,-3.5957 -0.35358,-6.60089c3.54157,0.86499 6.18061,1.50952 8.81971,2.15406c-0.63257,2.52801 2.2749,6.04406 -2.5185,7.552c-2.14318,-0.99292 -3.86859,-2.01044 -5.94763,-3.10517z" id="svg_6"/>
  <path fill="#FFFFFF" d="m671.05359,380.99854c-5.79077,0.268 -3.94592,-3.78437 -3.95105,-6.2876c-0.00867,-4.22034 3.48364,-2.38315 5.59399,-2.66348c3.68024,-0.48887 3.12244,2.23113 3.34851,4.54449c0.34656,3.54602 -1.13623,4.88516 -4.99145,4.40659z" id="svg_9"/>
  <path fill="#FFFFFF" d="m672.94641,675.0014c5.79065,-0.268 3.94592,3.78431 3.95111,6.28754c0.00873,4.22009 -3.48352,2.38348 -5.59393,2.6637c-3.67993,0.48852 -3.12262,-2.23114 -3.3487,-4.54462c-0.34649,-3.54596 1.13642,-4.88501 4.99152,-4.40662z" id="svg_10"/>
  <path fill="#FFFFFF" d="m267.95044,764.9986c-3.84848,0.47656 -5.34531,-0.84949 -4.99518,-4.40204c0.22763,-2.30976 -0.33966,-5.03668 3.34387,-4.54871c2.11014,0.27954 5.60361,-1.55993 5.59763,2.659c-0.00354,2.50189 1.84375,6.55548 -3.94632,6.29175z" id="svg_11"/>
  <path fill="#FFFFFF" d="m526.79926,265.62103c-6.73365,2.66666 -8.62659,1.84748 -8.85035,-3.02493c-0.151,-3.28873 0.69959,-4.7038 4.36164,-4.72089c3.73346,-0.01736 5.24505,1.13935 4.70227,4.84043c-0.11933,0.81381 -0.06446,1.65323 -0.21356,2.90539z" id="svg_12"/>
  <path fill="#FFFFFF" d="m289.97043,277.6524c-2.76038,-0.18563 -5.50806,-0.83358 -8.61276,-1.65029c-0.34733,-7.11484 0.43506,-8.13007 6.02685,-6.90958c5.0191,1.09552 1.67685,5.39404 2.58591,8.55987z" id="svg_13"/>
  <path fill="#FFFFFF" d="m738.625,723.88025c-2.461,-0.77228 -5.42639,-1.10724 -6.26355,-2.62c-0.73273,-1.32403 0.34552,-5.01605 1.68201,-5.75909c1.52411,-0.84766 4.21991,0.41162 6.40649,0.75531c-0.4682,2.51642 -0.9364,5.0329 -1.82495,7.62378z" id="svg_15"/>
  <path fill="#FFFFFF" d="m885.84497,446.38611c-5.14459,0.47748 -10.13788,0.64221 -15.12829,0.58032c-3.45295,-0.04278 -10.61927,-7.66144 -10.71259,-11.15811c-0.02661,-0.99912 0.17322,-2.0376 -0.03168,-2.9935c-1.99762,-9.31781 3.74958,-14.31552 10.49829,-18.59262c6.0951,-3.86282 19.08301,1.35727 21.41468,8.3822c0.59661,1.79758 1.36218,3.54126 2.09387,5.29141c2.49927,5.97788 -0.16602,9.77021 -5.98663,16.09833c-0.6341,0.6893 -1.32862,1.323 -2.14765,2.39197z" id="svg_16"/>
  <rect fill="#000000" stroke="#000" fill-opacity="0" x="943.5" y="290" width="13" height="24" id="svg_18"/>
 </g>

</svg>